ply
format ascii 1.0
comment Created by Blender 2.69 (sub 0) - www.blender.org, source file: ''
element vertex 24
property float x
property float y
property float z
property float nx
property float ny
property float nz
element face 6
property list uchar uint vertex_indices
end_header
1.686208 1.258708 -3.185530 0.047550 0.007206 -0.998843
1.387569 -1.080599 -3.216625 0.047550 0.007206 -0.998843
-2.048819 -1.295339 -3.381764 0.047550 0.007206 -0.998843
-1.750180 1.043968 -3.350670 0.047550 0.007206 -0.998843
2.048820 1.295339 3.381764 -0.047550 -0.007206 0.998843
-1.387569 1.080599 3.216625 -0.047550 -0.007206 0.998843
-1.686208 -1.258708 3.185530 -0.047550 -0.007206 0.998843
1.750179 -1.043969 3.350670 -0.047550 -0.007206 0.998843
1.686208 1.258708 -3.185530 0.990592 -0.125743 -0.053994
2.048820 1.295339 3.381764 0.990592 -0.125743 -0.053994
1.750179 -1.043969 3.350670 0.990592 -0.125743 -0.053994
1.387569 -1.080599 -3.216625 0.990592 -0.125743 -0.053994
1.387569 -1.080599 -3.216625 0.062266 -0.998057 0.002129
1.750179 -1.043969 3.350670 0.062266 -0.998057 0.002129
-1.686208 -1.258708 3.185530 0.062266 -0.998057 0.002129
-2.048819 -1.295339 -3.381764 0.062266 -0.998057 0.002129
-2.048819 -1.295339 -3.381764 -0.990592 0.125743 0.053994
-1.686208 -1.258708 3.185530 -0.990592 0.125743 0.053994
-1.387569 1.080599 3.216625 -0.990592 0.125743 0.053994
-1.750180 1.043968 -3.350670 -0.990592 0.125743 0.053994
2.048820 1.295339 3.381764 -0.062266 0.998057 -0.002129
1.686208 1.258708 -3.185530 -0.062266 0.998057 -0.002129
-1.750180 1.043968 -3.350670 -0.062266 0.998057 -0.002129
-1.387569 1.080599 3.216625 -0.062266 0.998057 -0.002129
4 0 1 2 3
4 4 5 6 7
4 8 9 10 11
4 12 13 14 15
4 16 17 18 19
4 20 21 22 23
